<svg width="157" height="128" viewBox="0 0 157 128" fill="none" xmlns="http://www.w3.org/2000/svg">
<path d="M145.5 66C145.5 99.6894 77.5 60.5 77.5 128C77.5 58.5 13 100.689 13 67C117.5 65.1873 41.3253 6 77.5 6C113.675 6 52 67.6358 145.5 66Z" fill="#FF5C5C"/>
<line x1="40.3586" y1="56.0132" x2="-0.000114441" y2="56.0132" stroke="white" stroke-width="2"/>
<path d="M56.5466 17.2597C52.6538 12.4398 49.5783 9.95828 42.1327 6C38.0187 18.5836 38.0432 25.1216 42.1327 36.026C34.4992 66.7147 43.4632 84.5974 77.8347 91C115.311 82.1688 122.309 67.6619 115.311 36.026C118.7 24.723 118.61 18.14 115.311 6C109.716 8.43876 106.493 10.6247 100.453 17.2597" stroke="white" stroke-width="7"/>
<path d="M79.4999 69.3633C77.8933 64.81 76.4059 62.5951 72.9704 59.097H86.0293C82.7855 62.6479 81.2743 64.8405 79.4999 69.3633Z" fill="white"/>
<line x1="39.0283" y1="60.6494" x2="5.32211" y2="60.6494" stroke="white" stroke-width="2"/>
<line x1="42.1328" y1="65.0649" x2="14.1921" y2="65.0649" stroke="white" stroke-width="2"/>
<line x1="117.972" y1="54.9902" x2="157" y2="54.9902" stroke="white" stroke-width="2"/>
<line x1="117.972" y1="59.8472" x2="152.121" y2="59.8472" stroke="white" stroke-width="2"/>
<line x1="117.528" y1="64.2627" x2="144.138" y2="64.2627" stroke="white" stroke-width="2"/>
</svg>
